HIERARCHY
ROOT hip
{
	OFFSET 0.000000 0.000000 0.000000 
	CHANNELS 6 Xposition Yposition Zposition Xrotation Zrotation Yrotation
	JOINT abdomen
	{
		OFFSET 0.000000 3.402643 0.000000 
		CHANNELS 3 Xrotation Zrotation Yrotation
		JOINT chest
		{
			OFFSET 0.000000 8.438565 -0.680529 
			CHANNELS 3 Xrotation Zrotation Yrotation
			JOINT neck
			{
				OFFSET 0.000000 10.207942 -0.272212 
				CHANNELS 3 Xrotation Zrotation Yrotation
				JOINT head
				{
					OFFSET 0.000000 3.130431 0.000000 
					CHANNELS 3 Xrotation Zrotation Yrotation
					End Site
					{
						OFFSET 0.000000 3.130435 0.000000 
					}
				}
			}
			JOINT lCollar
			{
				OFFSET 3.470700 6.669187 -0.816635 
				CHANNELS 3 Yrotation Zrotation Xrotation
				JOINT lShldr
				{
					OFFSET 3.198488 0.000000 0.000000 
					CHANNELS 3 Zrotation Yrotation Xrotation
					JOINT lForeArm
					{
						OFFSET 10.139888 0.000000 0.000000 
						CHANNELS 3 Yrotation Zrotation Xrotation
						JOINT lHand
						{
							OFFSET 8.370511 0.000000 0.000000 
							CHANNELS 3 Zrotation Yrotation Xrotation
							End Site
							{
								OFFSET 4.083176 0.000000 0.000000 
							}
						}
					}
				}
			}
			JOINT rCollar
			{
				OFFSET -3.470700 6.669187 -0.816635 
				CHANNELS 3 Yrotation Zrotation Xrotation
				JOINT rShldr
				{
					OFFSET -3.198488 0.000000 0.000000 
					CHANNELS 3 Zrotation Yrotation Xrotation
					JOINT rForeArm
					{
						OFFSET -10.139888 0.000000 0.000000 
						CHANNELS 3 Yrotation Zrotation Xrotation
						JOINT rHand
						{
							OFFSET -8.370511 0.000000 0.000000 
							CHANNELS 3 Zrotation Yrotation Xrotation
							End Site
							{
								OFFSET -4.083176 0.000000 0.000000 
							}
						}
					}
				}
			}
		}
	}
	JOINT lThigh
	{
		OFFSET 5.308129 -1.633274 1.361059 
		CHANNELS 3 Xrotation Zrotation Yrotation
		JOINT lShin
		{
			OFFSET -2.041588 -20.007561 0.000000 
			CHANNELS 3 Xrotation Zrotation Yrotation
			JOINT lFoot
			{
				OFFSET 0.000000 -19.190928 -1.224953 
				CHANNELS 3 Xrotation Yrotation Zrotation
				End Site
				{
					OFFSET 0.000000 -2.449906 4.627600 
				}
			}
		}
	}
	JOINT rThigh
	{
		OFFSET -5.308129 -1.633274 1.361059 
		CHANNELS 3 Xrotation Zrotation Yrotation
		JOINT rShin
		{
			OFFSET 2.041588 -20.007561 0.000000 
			CHANNELS 3 Xrotation Zrotation Yrotation
			JOINT rFoot
			{
				OFFSET 0.000000 -19.190928 -1.224953 
				CHANNELS 3 Xrotation Yrotation Zrotation
				End Site
				{
					OFFSET 0.000000 -2.449906 4.627600 
				}
			}
		}
	}
}
MOTION
Frames: 15
Frame Time: 0.016667
-8.886145 40.130169 -37.444534 4.072750 -4.062020 63.167400 -16.472200 -0.437185 -1.943020 22.335600 2.430470 -1.027710 -17.998100 4.090540 -21.058500 0.475580 8.711360 -9.764910 2.000000 -2.000000 0.000000 -82.214401 -13.842500 -152.207993 35.820702 -0.325706 0.080072 0.044981 0.000809 -133.141998 -2.000000 2.000000 0.000000 -93.337700 169.529007 3.044210 -32.324600 0.330378 0.073108 -0.057036 0.028964 -147.322006 -25.210487 5.718486 7.929114 51.240677 1.562272 3.625552 -27.262564 -5.515862 -3.812678 -37.371750 -8.005250 18.223764 63.464668 -1.396153 -3.907841 -1.914513 -7.818175 -2.416049 
-8.737038 40.336334 -37.713245 4.143770 -4.519450 64.740799 -16.653999 -0.439828 -2.227890 22.316000 2.381690 -1.156990 -18.012400 3.953570 -21.542999 0.495410 8.701750 -10.015300 2.000000 -2.000000 0.000000 -81.893204 -13.620200 -153.272995 32.109699 -0.330652 0.072730 0.044845 -0.001511 -133.973007 -2.000000 2.000000 0.000000 -93.445602 170.796005 -1.919930 -28.310900 0.335212 0.064842 -0.057006 0.028803 -147.264008 -25.192947 4.534201 6.650423 49.680435 1.628355 3.536921 -27.318638 -4.715572 -3.555220 -36.932808 -7.009306 18.044907 62.740040 -1.409734 -3.884331 -2.749339 -9.205662 -2.594092 
-8.611804 40.645466 -37.915340 4.069210 -5.153060 66.860199 -16.863501 -0.429302 -2.588990 22.208401 2.342780 -1.328600 -18.015800 3.820440 -22.166100 0.544946 8.682610 -10.329000 2.000000 -2.000000 0.000000 -81.651001 -13.448300 -155.097000 28.418301 -0.335090 0.065124 0.044891 -0.000665 -133.669998 -2.000000 2.000000 0.000000 -93.730202 172.386002 -6.806780 -24.472900 0.339281 0.056640 -0.056441 0.025515 -146.072006 -25.330454 3.331687 4.471338 48.062557 1.690337 3.474712 -26.828405 -3.880002 -3.221283 -36.126179 -5.758952 17.330416 61.232994 -1.434966 -3.855162 -3.328276 -9.214051 -2.649291 
-8.510688 41.027058 -38.053406 4.005300 -5.854910 69.335999 -17.089300 -0.329515 -3.101160 22.062099 2.616290 -1.542220 -18.095900 3.821470 -22.895000 0.623496 8.751400 -10.663000 2.000000 -2.000000 0.000000 -81.800797 -13.319400 -158.651993 24.863600 -0.338892 0.057544 0.045259 0.004408 -131.852997 -2.000000 2.000000 0.000000 85.642502 5.612910 168.626999 -21.132999 0.342369 0.049295 -0.055362 0.017548 -143.201004 -25.389778 2.140531 1.980929 46.060043 1.779123 3.363125 -25.568005 -3.483512 -3.064868 -35.323128 -4.366846 16.266510 59.500134 -1.465776 -3.806055 -4.088871 -8.260422 -2.579768 
-8.417098 41.465137 -38.140469 4.001290 -6.614840 72.008698 -17.332399 -0.197491 -3.666860 21.925800 3.046010 -1.792050 -18.255899 3.958120 -23.690399 0.721160 8.917800 -10.999400 2.000000 -2.000000 0.000000 -82.117401 -13.155700 -164.003998 21.591999 -0.341971 0.050372 0.046254 0.012991 -128.766998 -2.000000 2.000000 0.000000 84.897697 3.151280 164.714996 -18.623301 0.344405 0.043663 -0.054502 0.005769 -138.981995 -25.459068 1.136286 -0.139233 43.871235 1.858214 3.238353 -23.672014 -3.717747 -3.161417 -34.549625 -2.902756 15.070626 57.416187 -1.496362 -3.775694 -5.184506 -6.705103 -2.430935 
-8.326621 41.945957 -38.191246 3.979070 -7.462640 74.960197 -17.629299 -0.157636 -4.340680 21.740400 3.427010 -2.106510 -18.302999 4.148900 -24.445999 0.858575 9.064980 -11.308500 2.000000 -2.000000 0.000000 -82.179298 -12.789700 -170.399002 18.984600 -0.344128 0.044537 0.047784 0.021884 -125.544998 -2.000000 2.000000 0.000000 84.280800 0.109289 162.578003 -17.226801 0.345431 0.040493 -0.054505 0.003914 -134.832001 -25.604666 0.464429 -1.588591 41.593655 1.940375 3.112397 -21.394905 -4.789739 -3.550489 -33.954525 -1.337441 13.647126 55.155773 -1.515587 -3.723303 -6.161070 -5.002881 -2.127142 
-8.232089 42.426643 -38.226406 3.860700 -8.486840 78.168701 -18.028299 -0.233773 -5.075310 21.486200 3.632340 -2.460130 -17.856701 4.252120 -25.127701 1.155130 9.086320 -11.603500 2.000000 -2.000000 0.000000 98.317596 -168.046997 3.983410 17.597900 -0.345166 0.041395 0.048535 0.025414 -124.255997 -2.000000 2.000000 0.000000 83.822899 -3.633540 163.712006 -17.090000 0.345527 0.040181 -0.054829 -0.001983 -132.723007 -26.072704 0.225536 -2.279914 39.583912 1.968449 3.025130 -19.047174 -6.945934 -4.239268 -33.669884 0.286499 11.990347 52.719868 -1.515212 -3.664560 -6.985435 -2.952117 -1.640861 
-8.119458 42.848766 -38.283363 3.506310 -9.611220 81.482597 -18.469200 -0.298788 -5.920820 21.271000 3.691120 -2.863630 -17.118900 4.223270 -25.657200 1.521430 9.010200 -11.845800 2.000000 -2.000000 0.000000 99.196899 -169.386002 0.386517 17.539301 -0.345208 0.041262 0.047530 0.020596 -126.014000 -2.000000 2.000000 0.000000 83.074799 -7.873380 168.595001 -18.095900 0.344802 0.042469 -0.054670 0.000418 -133.582001 -26.954458 0.471014 -2.093470 38.289299 1.990364 2.965920 -17.143742 -9.700055 -4.985693 -33.757668 1.968759 9.957819 50.303108 -1.526997 -3.609043 -7.702769 0.251901 -0.806344 
-7.993448 43.161625 -38.388397 2.950800 -10.601500 84.650497 -18.810900 -0.348940 -6.699420 21.251301 3.544660 -3.228010 -16.436701 4.064250 -26.040899 1.828400 8.894410 -12.036600 2.000000 -2.000000 0.000000 100.438004 -171.042007 -1.082230 18.545099 -0.344465 0.043544 0.045842 0.009901 -129.880997 -2.000000 2.000000 0.000000 -98.092903 -167.733994 -4.054570 -20.000200 0.343319 0.046764 -0.054402 -0.001067 -136.541000 -27.798027 1.075794 -0.982957 37.662994 1.975186 2.936933 -16.621170 -10.998928 -5.335949 -34.102055 3.629344 7.691842 48.181408 -1.501844 -3.565505 -7.813351 4.576402 0.409684 
-7.880852 43.335884 -38.537586 2.478890 -11.200700 87.447601 -18.989000 -0.390256 -7.342930 21.407700 3.359010 -3.523860 -15.942300 3.854550 -26.285700 2.016530 8.797490 -12.160800 2.000000 -2.000000 0.000000 101.893997 -172.878006 -1.281880 20.215099 -0.343143 0.047302 0.044810 -0.002221 -134.225998 -2.000000 2.000000 0.000000 -99.789398 -163.496002 4.177150 -22.402599 0.341246 0.052108 -0.054620 0.008419 -139.929993 -28.181099 1.735213 0.805367 37.920578 1.947526 2.980499 -18.326572 -8.747949 -4.843128 -34.462505 5.099830 5.352392 46.434124 -1.443687 -3.565135 -7.240580 8.797736 1.556184 
-7.797823 43.415298 -38.696655 2.380870 -11.386900 89.714798 -19.061600 -0.418113 -7.894710 21.681700 3.456370 -3.769590 -15.520300 3.572150 -26.347900 2.145260 8.710040 -12.216600 2.000000 -2.000000 0.000000 103.369003 -174.938995 -0.944969 22.285400 -0.341352 0.051906 0.044674 -0.003637 -138.220993 -2.000000 2.000000 0.000000 77.729897 -20.382601 -166.925995 -24.902599 0.338853 0.057572 -0.055441 0.018255 -143.455002 -27.686771 2.054862 2.604000 38.617115 1.936958 3.018351 -21.204838 -3.243477 -2.854638 -34.676498 6.352874 3.822931 45.162025 -1.422838 -3.508264 -5.353296 12.861863 2.314996 
-7.756313 43.440517 -38.828091 2.848080 -11.285200 91.619301 -19.086700 -0.594341 -8.341670 21.985500 3.758600 -3.997670 -15.162200 3.288130 -26.364100 2.214660 8.622390 -12.262100 2.000000 -2.000000 0.000000 105.137001 -177.128998 -0.051741 24.609600 -0.339146 0.056993 0.045266 -0.014229 -142.009995 -2.000000 2.000000 0.000000 75.031502 -23.682699 -158.613007 -27.011999 0.336650 0.062097 -0.056624 0.026621 -146.473007 -26.170385 1.926951 4.293314 38.959045 1.947502 3.023365 -23.568394 2.430943 -0.081213 -34.773792 7.251747 3.499828 44.488644 -1.397053 -3.509060 -2.344903 15.372857 2.271226 
-7.761448 43.385563 -38.917732 3.770820 -11.021600 93.680801 -19.060801 -1.082030 -8.730620 22.250200 3.982640 -4.247180 -14.742100 3.172070 -26.498400 2.303740 8.544520 -12.354000 2.000000 -2.000000 0.000000 107.519997 -179.350006 1.593250 27.139000 -0.336513 0.062423 0.046573 -0.024867 -145.837997 -2.000000 2.000000 0.000000 72.928101 -26.626400 -152.151001 -28.652700 0.334823 0.065559 -0.057667 0.032212 -148.503998 -24.002632 1.517795 6.015551 38.985081 1.998421 3.010725 -24.559622 5.991991 2.022498 -34.760715 7.624267 3.591534 44.214489 -1.398540 -3.498535 0.150486 15.428528 1.831819 
-7.800677 43.197922 -38.972111 4.869320 -10.655700 96.108597 -19.009199 -1.693110 -9.200570 22.485701 4.226130 -4.564490 -14.303100 3.263000 -26.713900 2.422240 8.544780 -12.481600 2.000000 -2.000000 0.000000 110.274002 178.468002 3.775920 29.756201 -0.333538 0.067913 0.048539 -0.035181 -149.587997 -2.000000 2.000000 0.000000 71.539902 -29.397800 -148.455994 -29.580400 0.333746 0.067493 -0.058022 0.033898 -149.119003 -21.487362 1.070267 7.303100 38.941784 2.060277 2.993520 -24.360224 7.237081 2.841343 -34.686142 7.617902 3.671799 44.205097 -1.398826 -3.508804 1.781222 13.854190 1.491592 
-7.854171 42.872837 -39.010418 5.805160 -10.212100 98.800400 -18.931400 -2.201630 -9.788790 22.721800 4.576820 -4.914820 -13.787900 3.192570 -26.946400 2.560560 8.505990 -12.616600 2.000000 -2.000000 0.000000 113.028000 176.429993 6.222590 32.305000 -0.330403 0.073124 0.050825 -0.044136 -152.889008 -2.000000 2.000000 0.000000 70.829903 -31.967100 -147.992004 -29.443701 0.333906 0.067209 -0.057661 0.032185 -148.494003 -18.988243 0.872869 7.785114 39.335129 2.165132 2.951654 -23.878500 7.057568 2.833923 -34.525299 7.627760 3.875540 44.478848 -1.398174 -3.509886 3.114510 11.553440 1.238282 
